<?xml version="1.0" encoding="utf-8"?>
<!-- Generator: Adobe Illustrator 27.5.0, SVG Export Plug-In . SVG Version: 6.00 Build 0)  -->
<svg version="1.1" id="Capa_1" xmlns="http://www.w3.org/2000/svg" xmlns:xlink="http://www.w3.org/1999/xlink" x="0px" y="0px"
	 viewBox="0 0 2122 2122" style="enable-background:new 0 0 2122 2122;" xml:space="preserve">
<g>
	<path style="fill:#0073B1;" d="M1553.508,1930.403H567.812c-55.211,0-99.969-44.758-99.969-99.969V290.886
		c0-55.212,44.758-99.969,99.969-99.969h985.696c55.211,0,99.969,44.758,99.969,99.969v1539.548
		C1653.477,1885.646,1608.719,1930.403,1553.508,1930.403z"/>
	<path style="fill:#238DCB;" d="M1507.368,1848.3H579.627c-52.001,0-94.156-42.155-94.156-94.157V303.164
		c0-52.001,42.155-94.156,94.156-94.156h927.741c52.001,0,94.157,42.155,94.157,94.156v1450.979
		C1601.525,1806.144,1559.369,1848.3,1507.368,1848.3z"/>
	<rect x="551.338" y="328.684" style="fill:#383B4E;" width="1015.86" height="263.474"/>
	<path style="fill:#87BDE7;" d="M746.546,764.429H580.162c-17.456,0-31.607-14.151-31.607-31.606V689.92
		c0-17.456,14.151-31.607,31.607-31.607h166.384c17.456,0,31.607,14.151,31.607,31.607v42.902
		C778.153,750.278,764.002,764.429,746.546,764.429z"/>
	<path style="fill:#87BDE7;" d="M1008.943,764.429H842.559c-17.456,0-31.607-14.151-31.607-31.606V689.92
		c0-17.456,14.151-31.607,31.607-31.607h166.384c17.456,0,31.607,14.151,31.607,31.607v42.902
		C1040.549,750.278,1026.399,764.429,1008.943,764.429z"/>
	<path style="fill:#87BDE7;" d="M1271.339,764.429h-166.383c-17.456,0-31.607-14.151-31.607-31.606V689.92
		c0-17.456,14.151-31.607,31.607-31.607h166.383c17.456,0,31.607,14.151,31.607,31.607v42.902
		C1302.946,750.278,1288.795,764.429,1271.339,764.429z"/>
	<path style="fill:#87BDE7;" d="M1533.737,764.429h-166.384c-17.456,0-31.606-14.151-31.606-31.606V689.92
		c0-17.456,14.15-31.607,31.606-31.607h166.384c17.455,0,31.606,14.151,31.606,31.607v42.902
		C1565.343,750.278,1551.192,764.429,1533.737,764.429z"/>
	<path style="fill:#87BDE7;" d="M746.546,1026.398H580.162c-17.456,0-31.607-14.151-31.607-31.607V845.778
		c0-17.456,14.151-31.607,31.607-31.607h166.384c17.456,0,31.607,14.151,31.607,31.607v149.013
		C778.153,1012.247,764.002,1026.398,746.546,1026.398z"/>
	<path style="fill:#87BDE7;" d="M1008.943,1026.398H842.559c-17.456,0-31.607-14.151-31.607-31.607V845.778
		c0-17.456,14.151-31.607,31.607-31.607h166.384c17.456,0,31.607,14.151,31.607,31.607v149.013
		C1040.549,1012.247,1026.399,1026.398,1008.943,1026.398z"/>
	<path style="fill:#87BDE7;" d="M1271.339,1026.398h-166.383c-17.456,0-31.607-14.151-31.607-31.607V845.778
		c0-17.456,14.151-31.607,31.607-31.607h166.383c17.456,0,31.607,14.151,31.607,31.607v149.013
		C1302.946,1012.247,1288.795,1026.398,1271.339,1026.398z"/>
	<path style="fill:#87BDE7;" d="M1533.737,1026.398h-166.384c-17.456,0-31.606-14.151-31.606-31.607V845.778
		c0-17.456,14.15-31.607,31.606-31.607h166.384c17.455,0,31.606,14.151,31.606,31.607v149.013
		C1565.343,1012.247,1551.192,1026.398,1533.737,1026.398z"/>
	<path style="fill:#87BDE7;" d="M746.546,1284.306H580.162c-17.456,0-31.607-14.151-31.607-31.607v-149.013
		c0-17.456,14.151-31.607,31.607-31.607h166.384c17.456,0,31.607,14.151,31.607,31.607v149.013
		C778.153,1270.155,764.002,1284.306,746.546,1284.306z"/>
	<path style="fill:#87BDE7;" d="M1008.943,1284.306H842.559c-17.456,0-31.607-14.151-31.607-31.607v-149.013
		c0-17.456,14.151-31.607,31.607-31.607h166.384c17.456,0,31.607,14.151,31.607,31.607v149.013
		C1040.549,1270.155,1026.399,1284.306,1008.943,1284.306z"/>
	<path style="fill:#87BDE7;" d="M1271.339,1284.306h-166.383c-17.456,0-31.607-14.151-31.607-31.607v-149.013
		c0-17.456,14.151-31.607,31.607-31.607h166.383c17.456,0,31.607,14.151,31.607,31.607v149.013
		C1302.946,1270.155,1288.795,1284.306,1271.339,1284.306z"/>
	<path style="fill:#87BDE7;" d="M1533.737,1284.306h-166.384c-17.456,0-31.606-14.151-31.606-31.607v-149.013
		c0-17.456,14.15-31.607,31.606-31.607h166.384c17.455,0,31.606,14.151,31.606,31.607v149.013
		C1565.343,1270.155,1551.192,1284.306,1533.737,1284.306z"/>
	<path style="fill:#87BDE7;" d="M746.546,1542.214H580.162c-17.456,0-31.607-14.151-31.607-31.607v-149.013
		c0-17.456,14.151-31.607,31.607-31.607h166.384c17.456,0,31.607,14.151,31.607,31.607v149.013
		C778.153,1528.063,764.002,1542.214,746.546,1542.214z"/>
	<path style="fill:#87BDE7;" d="M1008.943,1542.214H842.559c-17.456,0-31.607-14.151-31.607-31.607v-149.013
		c0-17.456,14.151-31.607,31.607-31.607h166.384c17.456,0,31.607,14.151,31.607,31.607v149.013
		C1040.549,1528.063,1026.399,1542.214,1008.943,1542.214z"/>
	<path style="fill:#87BDE7;" d="M1271.339,1542.214h-166.383c-17.456,0-31.607-14.151-31.607-31.607v-149.013
		c0-17.456,14.151-31.607,31.607-31.607h166.383c17.456,0,31.607,14.151,31.607,31.607v149.013
		C1302.946,1528.063,1288.795,1542.214,1271.339,1542.214z"/>
	<path style="fill:#87BDE7;" d="M746.546,1800.122H580.162c-17.456,0-31.607-14.15-31.607-31.606v-149.013
		c0-17.456,14.151-31.606,31.607-31.606h166.384c17.456,0,31.607,14.15,31.607,31.606v149.013
		C778.153,1785.971,764.002,1800.122,746.546,1800.122z"/>
	<path style="fill:#87BDE7;" d="M1008.943,1800.122H842.559c-17.456,0-31.607-14.15-31.607-31.606v-149.013
		c0-17.456,14.151-31.606,31.607-31.606h166.384c17.456,0,31.607,14.15,31.607,31.606v149.013
		C1040.549,1785.971,1026.399,1800.122,1008.943,1800.122z"/>
	<path style="fill:#87BDE7;" d="M1271.339,1800.122h-166.383c-17.456,0-31.607-14.15-31.607-31.606v-149.013
		c0-17.456,14.151-31.606,31.607-31.606h166.383c17.456,0,31.607,14.15,31.607,31.606v149.013
		C1302.946,1785.971,1288.795,1800.122,1271.339,1800.122z"/>
	<path style="fill:#87BDE7;" d="M1533.737,1329.987h-166.384c-17.456,0-31.606,14.151-31.606,31.607v406.921
		c0,17.455,14.151,31.606,31.606,31.606h166.384c17.455,0,31.607-14.151,31.607-31.606v-406.921
		C1565.344,1344.138,1551.192,1329.987,1533.737,1329.987z"/>
	<path style="fill:#87BDE7;" d="M1512.71,460.003c-1.897-10.124-8.773-20.127-18.276-24.413c-4.659-2.101-9.354-2.968-14.401-3.567
		c-4.168-0.495-9.53-0.713-12.129-1.3c-7.471-1.686-11.472-5.472-13.175-13.53c-0.049-0.232-0.079-0.343-0.114-0.487
		c0.005-0.155,0.008-0.324,0.001-0.62c-0.016-0.624-0.008-1.243-0.02-1.866c-0.004-0.219,0.129-1.189,0.176-1.613
		c0.147-0.642,0.303-1.279,0.457-1.922c0.379-1.591,2.449-5.118,3.567-6.278c0.632-0.655,1.277-1.293,1.918-1.939
		c0.439-0.409,0.889-0.805,1.349-1.189c0.055-0.04,0.081-0.059,0.145-0.106c1.525-1.072,3.118-1.986,4.768-2.846
		c0.283-0.148,0.45-0.241,0.588-0.32c0.125-0.044,0.204-0.069,0.387-0.137c1.164-0.434,2.347-0.815,3.549-1.13
		c0.901-0.236,1.81-0.431,2.725-0.599c0.174-0.032,0.241-0.049,0.362-0.073c0.152,0,0.317-0.001,0.609-0.013
		c0.927-0.037,1.847-0.083,2.776-0.064c0.347,0.007,2.456,0.268,2.609,0.24c1.363,0.271,2.709,0.637,4.011,1.121
		c0.297,0.171,1.504,0.736,1.62,0.801c0.278,0.156,2.45,1.646,2.272,1.434c1.666,1.385,3.12,3.012,3.739,3.883
		c3.192,4.483,8.901,6.619,13.961,3.66c4.431-2.592,6.872-9.448,3.66-13.96c-6.123-8.601-14.742-14.356-24.288-16.557
		c-0.058-2.35-0.117-4.701-0.175-7.051c-0.019-0.769-0.038-1.538-0.057-2.307c-0.066-2.657-1.093-5.319-2.988-7.215
		c-1.77-1.77-4.673-3.102-7.215-2.988c-2.639,0.118-5.376,0.985-7.215,2.988c-1.807,1.968-3.057,4.475-2.988,7.215
		c0.083,3.361,0.166,6.721,0.25,10.082c-0.881,0.262-1.763,0.53-2.641,0.855c-15.706,5.804-29.162,20.242-28.318,37.895
		c0.47,9.827,4.802,20.142,12.318,26.644c7.991,6.915,17.857,8.298,28.017,9.173c4.53,0.39,5.781,0.279,10.08,1.627
		c0.384,0.121,0.629,0.188,0.796,0.227c0.144,0.087,0.31,0.185,0.586,0.336c-0.008-0.004,1.378,0.956,1.668,1.092
		c1.637,1.447,2.882,3.238,3.849,5.191c3.133,6.325,1.371,13.681-3.956,19.217c-1.541,1.602-3.16,2.955-5.06,4.115
		c-2.739,1.673-2.518,1.586-5.512,2.393c-2.638,0.711-2.527,0.684-4.798,0.798c-1.108,0.055-2.217,0.062-3.325,0.023
		c-0.387-0.013-3.21-0.335-3.088-0.274c-4.723-0.826-7.412-1.854-11.047-4.339c-2.556-1.748-4.747-4.775-5.691-7.904
		c-3.783-12.54-23.485-7.197-19.678,5.425c4.905,16.259,19.792,25.4,35.721,27.079c0.075,3.04,0.151,6.08,0.226,9.119
		c0.02,0.769,0.038,1.538,0.057,2.307c0.065,2.657,1.093,5.319,2.988,7.215c1.77,1.77,4.673,3.102,7.215,2.988
		c2.639-0.118,5.376-0.985,7.215-2.988c1.806-1.968,3.057-4.475,2.988-7.215c-0.112-4.525-0.224-9.049-0.336-13.574
		C1503.432,498.334,1516.343,479.398,1512.71,460.003z"/>
	<g>
		<polygon style="fill:#4B4F69;" points="817.064,328.684 1024.338,555.049 1280.948,555.049 1073.674,328.684 		"/>
		<polygon style="fill:#4B4F69;" points="1174.073,328.684 1108.838,328.684 1316.111,555.049 1381.346,555.049 		"/>
	</g>
	<polygon style="fill:#20212D;" points="1381.346,555.049 1316.111,555.049 1280.948,555.049 1024.338,555.049 595.869,555.049 
		595.869,328.684 551.338,328.684 551.338,592.158 1058.317,592.158 1314.926,592.158 1350.09,592.158 1415.326,592.158 
		1567.199,592.158 1567.199,555.049 	"/>
</g>
</svg>
